<svg width="32" height="31" viewBox="0 0 32 31" fill="none" xmlns="http://www.w3.org/2000/svg">
    <path fill-rule="evenodd" clip-rule="evenodd" d="M0 15C0 6.729 6.729 0 15 0C23.271 0 30 6.729 30 15C30 23.271 23.271 30 15 30C6.729 30 0 23.271 0 15ZM1 15C1 22.7195 7.28052 29 15 29C22.7195 29 29 22.7195 29 15C29 7.28052 22.7195 1 15 1C7.28052 1 1 7.28052 1 15Z" transform="translate(1 0.800049)" fill="#4A4A4A" stroke="#4A4A4A" stroke-width="0.4"/>
    <path fill-rule="evenodd" clip-rule="evenodd" d="M6.5 0.5V5.57104C7.35999 5.79443 8 6.57056 8 7.5C8 8.60303 7.10303 9.5 6 9.5C5.07098 9.5 4.29449 8.86011 4.07098 8H0.5C0.223999 8 0 7.77661 0 7.5C0 7.22339 0.223999 7 0.5 7H4.07098C4.25299 6.30054 4.80048 5.75293 5.5 5.57104V0.5C5.5 0.223389 5.724 0 6 0C6.276 0 6.5 0.223389 6.5 0.5ZM5 7.5C5 8.05151 5.44849 8.5 6 8.5C6.55151 8.5 7 8.05151 7 7.5C7 6.94849 6.55151 6.5 6 6.5C5.44849 6.5 5 6.94849 5 7.5Z" transform="translate(10 8.2395)" fill="#4A4A4A" stroke="#4A4A4A" stroke-width="0.4"/>
    <path d="M0.5 1.5C0.776 1.5 1 1.2765 1 1V0.5C1 0.2235 0.776 0 0.5 0C0.224 0 0 0.2235 0 0.5V1C0 1.2765 0.224 1.5 0.5 1.5Z" transform="translate(15.5 4.2395)" fill="#4A4A4A"/>
    <path d="M0.5 0C0.224 0 0 0.2235 0 0.5V1C0 1.2765 0.224 1.5 0.5 1.5C0.776 1.5 1 1.2765 1 1V0.5C1 0.2235 0.776 0 0.5 0Z" transform="translate(15.5 25.7395)" fill="#4A4A4A"/>
    <path d="M1 0H0.5C0.224 0 0 0.2235 0 0.5C0 0.7765 0.224 1 0.5 1H1C1.276 1 1.5 0.7765 1.5 0.5C1.5 0.2235 1.276 0 1 0Z" transform="translate(26 15.2395)" fill="#4A4A4A"/>
    <path d="M1 0H0.5C0.224 0 0 0.2235 0 0.5C0 0.7765 0.224 1 0.5 1H1C1.276 1 1.5 0.7765 1.5 0.5C1.5 0.2235 1.276 0 1 0Z" transform="translate(4.5 15.2395)" fill="#4A4A4A"/>
    <path d="M0.500125 0.146438L0.146625 0.499938C-0.048875 0.695438 -0.048875 1.01144 0.146625 1.20694C0.244125 1.30444 0.372125 1.35344 0.500125 1.35344C0.628125 1.35344 0.756125 1.30444 0.853625 1.20694L1.20712 0.853438C1.40262 0.657938 1.40262 0.341938 1.20712 0.146438C1.01162 -0.0490624 0.695625 -0.0485624 0.500125 0.146438Z" transform="translate(22.9243 7.46106)" fill="#4A4A4A"/>
    <path d="M0.500125 0.146438L0.146625 0.499938C-0.048875 0.695438 -0.048875 1.01144 0.146625 1.20694C0.244125 1.30444 0.372125 1.35344 0.500125 1.35344C0.628125 1.35344 0.756125 1.30444 0.853625 1.20694L1.20712 0.853438C1.40262 0.657938 1.40262 0.341938 1.20712 0.146438C1.01162 -0.0490624 0.695125 -0.0485624 0.500125 0.146438Z" transform="translate(7.72192 22.6641)" fill="#4A4A4A"/>
    <path d="M0.853625 0.146625C0.658125 -0.048875 0.342125 -0.048875 0.146625 0.146625C-0.048875 0.342125 -0.048875 0.658125 0.146625 0.853625L0.500125 1.20712C0.597625 1.30462 0.725625 1.35363 0.853625 1.35363C0.981625 1.35363 1.10962 1.30462 1.20712 1.20712C1.40262 1.01162 1.40262 0.695625 1.20712 0.500125L0.853625 0.146625Z" transform="translate(22.9243 22.6639)" fill="#4A4A4A"/>
    <path d="M0.853625 0.146625C0.658125 -0.048875 0.342125 -0.048875 0.146625 0.146625C-0.048875 0.342125 -0.048875 0.658125 0.146625 0.853625L0.500125 1.20712C0.597625 1.30462 0.725625 1.35363 0.853625 1.35363C0.981625 1.35363 1.10962 1.30462 1.20712 1.20712C1.40262 1.01162 1.40262 0.695625 1.20712 0.500125L0.853625 0.146625Z" transform="translate(7.72192 7.46094)" fill="#4A4A4A"/>
</svg>
