<svg width="137" height="68" viewBox="0 0 137 68" fill="none" xmlns="http://www.w3.org/2000/svg">
    <path d="M35 22.0685C35 23.2112 34.0737 24.1376 32.9311 24.1376H2.0689C0.926269 24.1376 0 23.2111 0 22.0685V2.06897C0 0.92627 0.926269 0 2.0689 0H32.931C34.0737 0 34.9999 0.926338 34.9999 2.06897L35 22.0685Z" transform="translate(78 43)" fill="#E7E8E3"/>
    <path opacity="0.15" d="M1.47089 22.0685V2.06897C1.47089 0.92627 2.39729 0 3.53992 0H2.06883C0.926269 0 0 0.926407 0 2.06897V22.0685C0 23.2112 0.926269 24.1376 2.0689 24.1376H3.53999C2.39736 24.1376 1.47089 23.2111 1.47089 22.0685Z" transform="translate(78 43)" fill="#202121"/>
    <path d="M7.26106 5.76912C7.26106 3.95883 8.09491 2.3437 9.39941 1.28605C8.40793 0.482207 7.14485 0 5.76905 0C2.58289 0 0 2.58282 0 5.76912C0 8.95521 2.58289 11.538 5.76905 11.538C7.14485 11.538 8.40793 11.0561 9.39941 10.2523C8.09491 9.19427 7.26106 7.57921 7.26106 5.76912Z" transform="translate(86.1006 46.7834)" fill="#EA001B"/>
    <path d="M3.6305 0C2.2547 0 0.991484 0.482138 0 1.28604C1.30457 2.34363 2.13842 3.95883 2.13842 5.76912C2.13842 7.57921 1.30457 9.19434 0 10.2523C0.991484 11.056 2.2547 11.5379 3.6305 11.5379C6.81666 11.5379 9.39941 8.95515 9.39941 5.76905C9.39941 2.58296 6.81666 0 3.6305 0Z" transform="translate(95.5 46.7833)" fill="#0099DF"/>
    <path d="M4.27677 4.48308C4.27677 2.67278 3.44292 1.05766 2.13835 0C0.833848 1.05759 0 2.67278 0 4.48308C0 6.29316 0.833848 7.90829 2.13835 8.96622C3.44292 7.90822 4.27677 6.29316 4.27677 4.48308Z" transform="translate(93.3618 48.0695)" fill="#6C6BBD"/>
    <path d="M3.93504 0C3.50205 0 3.08704 0.229824 2.81497 0.6179C2.53306 0.224356 2.12782 0 1.69552 0C1.43623 0 1.1498 0.119081 0.903438 0.328329L0.786065 0.11122C0.779502 0.0989833 0.766582 0.0912592 0.752637 0.0912592H0.0380761C0.0171582 0.0912592 0 0.108281 0 0.129336V3.41086C0 3.43185 0.0170898 3.44894 0.0380761 3.44894H0.921963C0.943018 3.44894 0.960039 3.43191 0.960039 3.41086V1.52749C1.05841 1.15247 1.29726 0.92873 1.59975 0.92873C1.97504 0.92873 2.26878 1.30334 2.26878 1.78151V3.41086C2.26878 3.43185 2.28587 3.44894 2.30686 3.44894H3.13195C3.15301 3.44894 3.17003 3.43191 3.17003 3.41086V1.72949C3.18391 1.34442 3.4408 0.92873 3.83188 0.92873C4.20718 0.92873 4.50092 1.30327 4.50092 1.78151V3.41086C4.50092 3.43185 4.51801 3.44894 4.53899 3.44894H5.36409C5.38515 3.44894 5.40217 3.43191 5.40217 3.41086V1.78151C5.40203 0.79919 4.74407 0 3.93504 0Z" transform="translate(82.6855 60.8539)" fill="#34495E"/>
    <path d="M3.59598 0.0989175H2.88887C2.87137 0.0989175 2.85585 0.111016 2.85188 0.128243L2.79248 0.380078C2.49122 0.134463 2.11456 0 1.72491 0C0.773827 0 0 0.795773 0 1.774C0 2.75215 0.773827 3.54799 1.72491 3.54799C2.108 3.54799 2.47851 3.4179 2.77717 3.18022V3.41858C2.77717 3.43957 2.79426 3.45666 2.81524 3.45666H3.59604C3.6171 3.45666 3.63412 3.43964 3.63412 3.41858V0.137061C3.63398 0.115938 3.61703 0.0989175 3.59598 0.0989175ZM1.84283 2.62671C1.63187 2.62671 1.43746 2.54119 1.28201 2.38075C1.13135 2.21026 1.04843 1.9948 1.04843 1.77393C1.04843 1.54902 1.1334 1.32816 1.28085 1.1684C1.43753 1.00666 1.63181 0.921143 1.8429 0.921143C2.05338 0.921143 2.25012 1.00871 2.3975 1.1684C2.54734 1.32323 2.62978 1.53822 2.62978 1.77393C2.62978 2.00573 2.54919 2.21539 2.39688 2.38014C2.24998 2.53914 2.05324 2.62671 1.84283 2.62671Z" transform="translate(88.5122 60.8463)" fill="#34495E"/>
    <path d="M1.72505 0C0.773965 0 0 0.79919 0 1.78158C0 2.76404 0.773965 3.56323 1.72505 3.56323C2.23316 3.56323 2.7084 3.33614 3.02893 2.94C3.03563 2.9318 3.03857 2.92113 3.03707 2.91061C3.03557 2.90008 3.02976 2.89078 3.02101 2.88477L2.32859 2.40509C2.31328 2.39449 2.29264 2.39654 2.27951 2.40994C2.13671 2.55746 1.94817 2.64202 1.76176 2.64202C1.55593 2.64202 1.36979 2.55432 1.22309 2.38827C1.15931 2.31663 1.10756 2.23221 1.06586 2.13179H3.38235C3.40047 2.13179 3.41592 2.11914 3.41961 2.1015C3.44053 2.00102 3.44976 1.90231 3.44976 1.78165C3.44982 0.799191 2.67613 0 1.72505 0ZM1.04911 1.47704C1.09279 1.35864 1.15254 1.25221 1.22254 1.16785C1.37156 1.00652 1.55811 0.921281 1.76183 0.921281C1.96198 0.921281 2.15564 1.0109 2.29339 1.16751C2.37104 1.25412 2.43141 1.36028 2.46948 1.47711L1.04911 1.47704Z" transform="translate(92.6226 60.8311)" fill="#34495E"/>
    <path d="M1.86281 1.43356C1.79049 1.40813 1.71891 1.38592 1.65103 1.36479C1.35367 1.27244 1.18646 1.21256 1.21025 1.05547C1.22974 0.901592 1.32578 0.820312 1.48779 0.820312C1.68022 0.820312 1.94477 0.937343 2.23264 1.14987C2.24125 1.15609 2.25198 1.15855 2.26251 1.15664C2.2729 1.15459 2.28213 1.14837 2.2876 1.13921L2.71484 0.446456C2.72585 0.428682 2.72031 0.405302 2.70267 0.39416C2.27468 0.127079 1.97287 0 1.41547 0C0.751287 0 0.250351 0.445088 0.250351 1.03537C0.250351 1.70317 0.715194 1.90511 1.32284 2.09945C1.58725 2.18483 1.76048 2.25606 1.76048 2.45909C1.76048 2.61256 1.64543 2.70416 1.45259 2.70416C1.25304 2.70416 0.924716 2.59164 0.656337 2.27459C0.649364 2.26639 0.639246 2.26153 0.628445 2.26112C0.618464 2.26181 0.607391 2.26516 0.599735 2.27281L0.0105442 2.88955C-0.00360619 2.90432 -0.0034685 2.92763 0.0106819 2.94226C0.388436 3.33272 0.934422 3.54778 1.54815 3.54778C2.19237 3.54778 2.75743 3.04965 2.75743 2.48179C2.75743 1.98912 2.43074 1.60679 1.86281 1.43356Z" transform="translate(96.2612 60.8462)" fill="#34495E"/>
    <path d="M2.37344 1.21823H1.6748V0.0380766C1.6748 0.0170903 1.65785 0 1.63673 0H0.70123C0.680312 0 0.663154 0.017022 0.663154 0.0380766V1.21823H0.0380746C0.0171566 1.21823 0 1.23525 0 1.25631V2.14717C0 2.16815 0.0170882 2.18524 0.0380746 2.18524H0.663154V4.5379C0.663154 4.55889 0.680244 4.57598 0.70123 4.57598H1.63673C1.65778 4.57598 1.6748 4.55895 1.6748 4.5379V2.18524H2.37344C2.39449 2.18524 2.41151 2.16822 2.41151 2.14717V1.25631C2.41151 1.23525 2.39449 1.21823 2.37344 1.21823Z" transform="translate(99.377 59.7271)" fill="#34495E"/>
    <path d="M2.51152 0.0935143C2.34097 0.0322643 2.15059 0 1.96082 0C1.50917 0 1.12649 0.151348 0.898241 0.417539L0.788457 0.108964C0.783125 0.0937887 0.768836 0.0836718 0.752635 0.0836718H0.0380766C0.0171587 0.0836718 0 0.100694 0 0.121748V3.40327C0 3.42426 0.0170903 3.44135 0.0380766 3.44135H0.958875C0.97993 3.44135 0.996952 3.42433 0.996952 3.40327L0.996337 1.59797C1.06682 1.21174 1.39391 0.931465 1.7742 0.931465C1.8913 0.931465 2.0084 0.957577 2.12208 1.00905C2.13131 1.01336 2.14184 1.01349 2.15154 1.00987C2.16104 1.00611 2.16884 0.998729 2.1728 0.989296L2.53374 0.144168C2.53777 0.13453 2.53777 0.123594 2.5336 0.114023C2.52943 0.10459 2.52137 0.097069 2.51152 0.0935143Z" transform="translate(102.287 60.8616)" fill="#34495E"/>
    <path d="M1.79129 0C0.8037 0 0 0.795773 0 1.774C0 2.75215 0.8037 3.54799 1.79129 3.54799C2.79993 3.54799 3.58989 2.76876 3.58989 1.774C3.58989 0.795773 2.78311 0 1.79129 0ZM1.7986 2.6343C1.58908 2.6343 1.39009 2.54468 1.25145 2.38704C1.09224 2.22257 1.01165 2.01626 1.01165 1.77393C1.01165 1.53638 1.09662 1.32159 1.2533 1.16655C1.38851 1.00577 1.58737 0.913556 1.79867 0.913556C2.01503 0.913556 2.20391 0.999142 2.36011 1.16785C2.50558 1.32535 2.58569 1.53795 2.58569 1.76634C2.58569 2.00238 2.50544 2.22325 2.36072 2.38704C2.20179 2.5511 2.0127 2.6343 1.7986 2.6343Z" transform="translate(104.931 60.8463)" fill="#34495E"/>
    <path d="M35 22.0685C35 23.2112 34.0737 24.1375 32.9311 24.1375H2.0689C0.926269 24.1376 0 23.2112 0 22.0685V2.06897C0 0.926338 0.926269 0 2.0689 0H32.9311C34.0738 0 35 0.926338 35 2.06897V22.0685Z" transform="translate(16 43)" fill="#306FC5"/>
    <path opacity="0.15" d="M1.47089 22.0685V2.06897C1.47089 0.926338 2.39729 0 3.53992 0H2.06883C0.926269 0 0 0.92627 0 2.06897V22.0685C0 23.2112 0.926269 24.1376 2.0689 24.1376H3.53999C2.39736 24.1376 1.47089 23.2112 1.47089 22.0685Z" transform="translate(16 43)" fill="#202121"/>
    <path d="M0 1.33096H1.04576L0.523018 0L0 1.33096Z" transform="translate(21.0991 51.3281)" fill="white"/>
    <path d="M0 0V0.618038H1.75882V1.28365H0V1.99685H1.94886L2.85195 0.998389L1.99644 0H0Z" transform="translate(26.6606 57.127)" fill="white"/>
    <path d="M0.570459 0L0 1.33096H1.09341L0.570459 0Z" transform="translate(39.8271 51.3281)" fill="white"/>
    <path d="M1.23594 2.70936V0L0 1.33103L1.23594 2.70936Z" transform="translate(30.5107 56.7943)" fill="white"/>
    <path d="M1.5212 0.427999C1.47362 0.142804 1.28331 0 0.997977 0H0V0.855585H1.04583C1.33096 0.855654 1.5212 0.713126 1.5212 0.427999Z" transform="translate(32.5547 57.127)" fill="white"/>
    <path d="M1.33089 0.713057C1.42598 0.66541 1.47369 0.522675 1.47369 0.380351C1.52127 0.190381 1.42598 0.0951572 1.33089 0.0475791C1.23607 9.86038e-07 1.09327 0 0.950879 0H0V0.760636H0.95081C1.0932 0.760636 1.23601 0.760635 1.33089 0.713057Z" transform="translate(36.0718 57.1748)" fill="white"/>
    <path d="M25.7352 0V0.570391L25.4502 0H23.2163V0.570391L22.931 0H19.8889C19.3661 0 18.9381 0.0951565 18.558 0.285264V0H16.4191V0.0475781V0.285264C16.1815 0.0952249 15.8963 0 15.516 0H7.86317L7.34009 1.18836L6.81734 0H5.10624H4.39318V0.570391L4.1555 0H4.10792H2.06404L1.11323 2.23398L0.0200976 4.65814L0 4.70579H0.0200976H2.44433H2.47468L2.4919 4.65814L2.77724 3.94529H3.39514L3.68033 4.70579H6.43699V4.65814V4.1354L6.67481 4.70572H8.05314L8.29069 4.1354V4.65814V4.70579H9.38397H14.8503H14.8979V3.46985H14.9932C15.0881 3.46985 15.0881 3.46985 15.0881 3.61252V4.65821H18.5106V4.37302C18.7958 4.51582 19.2233 4.65821 19.7937 4.65821H21.2199L21.5051 3.89785H22.1704L22.4556 4.65821H25.2124V4.18298V3.94536L25.6404 4.65821H25.7352H25.7829H27.8744V0H25.7353H25.7352ZM9.62179 3.99294H9.14635H8.86122V3.70795V1.37854L8.81364 1.48757V1.48627L7.70786 3.99294H7.67286H7.41863H7.00731L5.8666 1.37854V3.99294H4.25059L3.91788 3.27995H2.30159L1.96882 3.99294H1.13326L2.53941 0.665547H3.72764L5.05853 3.85021V0.665547H5.34365H6.31784L6.34026 0.713193H6.3419L6.94162 2.01845L7.37228 2.9964L7.38753 2.94711L8.33813 0.665615H9.62172V3.99294H9.62179ZM12.9017 1.37854H11.0478V1.99644H12.8541V2.66185H11.0478V3.32753H12.9017V4.04031H10.2398V0.665615H12.9017V1.37854ZM16.292 2.60422C16.2932 2.60531 16.2948 2.60606 16.2963 2.60709C16.3142 2.62609 16.3296 2.64517 16.3427 2.66342C16.4338 2.78277 16.5074 2.9603 16.5111 3.22062C16.5114 3.22513 16.5116 3.22957 16.5119 3.23408C16.5119 3.23668 16.5123 3.23894 16.5123 3.2416C16.5123 3.24311 16.5122 3.24427 16.5122 3.2457C16.5133 3.27188 16.514 3.29861 16.514 3.32753V3.99301H15.8011V3.61259C15.8011 3.42248 15.8011 3.13722 15.6583 2.94711C15.6134 2.9022 15.568 2.8726 15.5185 2.85154C15.4472 2.8054 15.3122 2.80465 15.0881 2.80465H14.2323V3.99301H13.4244V0.665615H15.2308C15.6583 0.665615 15.9437 0.665615 16.1814 0.808213C16.4143 0.948076 16.555 1.18002 16.5603 1.54731C16.5493 2.05317 16.2246 2.33071 15.9912 2.4243C15.9912 2.4243 16.1498 2.45622 16.292 2.60422ZM17.8926 3.99294H17.0844V0.665547H17.8926V3.99294ZM27.1616 3.99294H26.1157L24.5947 1.47355V3.56501L24.5897 3.56009V3.99499H23.7867V3.99301H22.9785L22.6933 3.28002H21.0295L20.7443 4.04038H19.8412C19.4612 4.04038 18.9856 3.94543 18.7005 3.66023C18.4153 3.37504 18.2729 2.99476 18.2729 2.37692C18.2729 1.90162 18.3678 1.42598 18.7005 1.04583C18.938 0.760429 19.366 0.665615 19.8887 0.665615H20.6495V1.37854H19.8887C19.6036 1.37854 19.4612 1.42591 19.2707 1.56878C19.1284 1.71131 19.0332 1.99644 19.0332 2.32914C19.0332 2.70949 19.0808 2.94711 19.2707 3.13722C19.4137 3.28002 19.6036 3.3276 19.8412 3.3276H20.1739L21.2671 0.71333H21.7427H22.4555L23.7866 3.89799V3.73557V2.66198V2.56703V0.713399H24.9748L26.353 3.0424V0.713399H27.1614V3.99308H27.1616V3.99294Z" transform="translate(18.5122 50.0922)" fill="white"/>
    <path d="M1.38195 0.672862C1.39583 0.658028 1.40841 0.641211 1.41907 0.621934C1.46214 0.55378 1.51149 0.431006 1.4849 0.263457C1.48381 0.248076 1.48101 0.233858 1.47773 0.220117C1.47684 0.216289 1.47697 0.21294 1.47595 0.209112L1.47547 0.20918C1.45182 0.127764 1.39146 0.0777252 1.33123 0.0473736C1.23594 5.7451e-07 1.09334 0 0.95081 0H0V0.760635H0.95081C1.09334 0.760635 1.23601 0.760635 1.33123 0.712989C1.34552 0.705743 1.35823 0.695898 1.37047 0.684756L1.3706 0.685371C1.37067 0.685303 1.37553 0.680244 1.38195 0.672862Z" transform="translate(32.7446 51.4707)" fill="white"/>
    <path d="M23.3386 3.185C23.3386 2.8523 23.2436 2.51945 23.1011 2.28184V0.14294H23.0989V0.000135601C23.0989 0.000135601 21.1066 0.000135601 20.81 0.000135601C20.5136 0.000135601 20.1539 0.285264 20.1539 0.285264V0.000135601H17.9675C17.6346 0.000135601 17.2071 0.0952932 17.0167 0.285264V0.000135601H13.1191V0.14294V0.285195C12.8341 0.0477146 12.3108 6.88434e-05 12.0734 6.88434e-05H9.50653V0.142871V0.285126C9.26891 0.0476458 8.69825 0 8.41292 0H5.56138L4.89576 0.713057L4.27779 0H4.0788H3.75498H0V0.142802V0.518301V4.80108H4.18291L4.87019 4.11359L5.46595 4.80108H5.51366H7.92388H8.03311H8.08069H8.128V4.32578V3.70788H8.36582C8.69825 3.70788 9.12625 3.70788 9.45895 3.56508V4.7533V4.84859H11.598V4.7533V3.61266H11.6928C11.8356 3.61266 11.8356 3.61266 11.8356 3.75525V4.7533V4.84859H18.2999C18.728 4.84859 19.1555 4.7533 19.3931 4.56319V4.7533V4.84859H21.4372C21.8647 4.84859 22.2929 4.80108 22.5781 4.61084C23.0157 4.34827 23.2915 3.8835 23.3326 3.32917C23.3345 3.31276 23.3369 3.29636 23.3384 3.27988L23.3356 3.27722C23.3373 3.24646 23.3386 3.21604 23.3386 3.185ZM8.36589 2.89987H7.41501V3.04213V3.32746V3.61272V4.1356H5.85266L4.94334 3.08978L4.94019 3.09326L4.89576 3.04213L3.85007 4.1356H0.808007V0.80835H3.89765L4.74175 1.73291L4.91921 1.9265L4.94327 1.90155L5.94159 0.808417H8.46077C8.94968 0.808417 9.49717 0.929073 9.70464 1.42652C9.72959 1.52503 9.74408 1.63454 9.74408 1.75895C9.74408 2.70956 9.0786 2.89987 8.36589 2.89987ZM13.1191 2.85223C13.2141 2.99448 13.2616 3.18493 13.2616 3.47026V4.13554H12.4537V3.70788C12.4537 3.51743 12.4537 3.18493 12.3109 3.04213C12.2161 2.89987 12.0257 2.89987 11.7407 2.89987H10.8852V4.1356H10.0772V0.760771H11.8833C12.2633 0.760771 12.596 0.760772 12.8341 0.903233C13.0716 1.04597 13.2616 1.28365 13.2616 1.66394C13.2616 2.18668 12.9291 2.47188 12.6913 2.5671C12.9291 2.66178 13.0716 2.75714 13.1191 2.85223ZM16.399 1.47349H14.545V2.09145H16.3513V2.75707H14.545V3.42262H16.399V4.13554H13.7372V0.760702H16.399V1.47349ZM18.3952 4.1356H16.8741V3.42269H18.3952C18.5376 3.42269 18.6329 3.42269 18.7281 3.32753C18.7757 3.27988 18.823 3.185 18.823 3.08984C18.823 2.99455 18.7757 2.89994 18.7281 2.8523C18.6804 2.80479 18.5852 2.75721 18.4427 2.75721C17.6821 2.70963 16.779 2.75721 16.779 1.71158C16.779 1.23621 17.0642 0.713261 17.9199 0.713261H19.4884V1.5212H18.0149C17.8724 1.5212 17.7772 1.5212 17.682 1.56878C17.5872 1.61643 17.5872 1.71158 17.5872 1.80653C17.5872 1.9492 17.682 1.99678 17.7771 2.04394C17.8724 2.09159 17.9674 2.09159 18.0623 2.09159H18.4902C18.918 2.09159 19.2032 2.18668 19.3933 2.37685C19.5359 2.51952 19.631 2.75721 19.631 3.08984C19.631 3.80263 19.2032 4.1356 18.3952 4.1356ZM22.4831 3.80263C22.2932 3.99301 21.9602 4.1356 21.4847 4.1356H19.964V3.42269H21.4847C21.6273 3.42269 21.7226 3.42269 21.8176 3.32753C21.865 3.27988 21.9127 3.185 21.9127 3.08984C21.9127 2.99455 21.865 2.89994 21.8176 2.8523C21.77 2.80479 21.675 2.75721 21.5324 2.75721C20.7721 2.70963 19.8687 2.75721 19.8687 1.71165C19.8687 1.25986 20.1272 0.851759 20.7646 0.730557C20.8409 0.72003 20.9214 0.713261 21.0096 0.713261H22.5783V1.5212H21.5324H21.1522H21.1047C20.962 1.5212 20.867 1.5212 20.7721 1.56878C20.7242 1.61643 20.6767 1.71158 20.6767 1.80653C20.6767 1.9492 20.7242 1.99678 20.867 2.04394C20.962 2.09159 21.0571 2.09159 21.1522 2.09159H21.1995H21.5799C21.7876 2.09159 21.9447 2.11723 22.0885 2.16774C22.2201 2.21539 22.656 2.41035 22.7535 2.91929C22.762 2.97261 22.7682 3.02825 22.7682 3.08984C22.7682 3.37511 22.6731 3.61272 22.4831 3.80263Z" transform="translate(25.1396 55.6534)" fill="white"/>
    <path d="M35 22.0685C35 23.2112 34.0737 24.1376 32.9311 24.1376H2.0689C0.926269 24.1376 0 23.2111 0 22.0685V2.06897C0 0.926338 0.926269 0 2.0689 0H32.931C34.0737 0 34.9999 0.926338 34.9999 2.06897L35 22.0685Z" transform="translate(51)" fill="#0099DF"/>
    <path opacity="0.15" d="M1.47089 22.0685V2.06897C1.47089 0.926338 2.39729 0 3.53992 0H2.06883C0.926269 0 0 0.926407 0 2.06897V22.0685C0 23.2112 0.926269 24.1376 2.0689 24.1376H3.53999C2.39736 24.1376 1.47089 23.2111 1.47089 22.0685Z" transform="translate(51)" fill="#202121"/>
    <path d="M4.94307 3.92759C4.94307 2.6952 5.51072 1.59551 6.39885 0.87541C5.724 0.328193 4.86384 0 3.92724 0C1.75813 0 0 1.75834 0 3.92752C0 6.09663 1.75813 7.85483 3.92724 7.85483C4.86397 7.85483 5.724 7.52685 6.39885 6.97942C5.51072 6.25953 4.94307 5.1599 4.94307 3.92759Z" transform="translate(68.936 6.67664)" fill="#EA001B"/>
    <path d="M2.4716 0C1.53487 0 0.675117 0.328193 0 0.87541C0.888262 1.59551 1.45592 2.6952 1.45592 3.92759C1.45592 5.1599 0.888262 6.25953 0 6.97949C0.675117 7.52684 1.53501 7.8549 2.4716 7.8549C4.64085 7.8549 6.39898 6.0967 6.39898 3.92759C6.39898 1.75834 4.64071 0 2.4716 0Z" transform="translate(75.335 6.67688)" fill="#F79F1A"/>
    <path d="M2.9117 3.05218C2.9117 1.8198 2.34404 0.720098 1.45578 0C0.567724 0.720098 0 1.8198 0 3.05218C0 4.28449 0.567656 5.38412 1.45578 6.10408C2.34397 5.38412 2.9117 4.28449 2.9117 3.05218Z" transform="translate(73.8789 7.55212)" fill="#FF5F01"/>
    <path d="M7.19817 5.33025C7.19817 5.60622 6.97423 5.82982 6.6986 5.82982H0.49957C0.223603 5.82982 0 5.60622 0 5.33025V0.499502C0 0.223536 0.223672 0 0.49957 0H6.6986C6.9743 0 7.19817 0.223536 7.19817 0.499502V5.33025Z" transform="translate(55.1387 7.09473)" fill="#FFC715"/>
    <path d="M7.83727 1.14133H0.570664C0.255459 1.14133 0 0.8858 0 0.570664C0 0.255458 0.255391 0 0.570664 0H7.83727C8.15247 0 8.40793 0.25539 8.40793 0.570664C8.40793 0.8858 8.15247 1.14133 7.83727 1.14133Z" transform="translate(54.5679 16.0618)" fill="#34495E"/>
    <path d="M7.83727 1.14133H0.570664C0.255459 1.14133 0 0.885939 0 0.570666C0 0.255461 0.255391 0 0.570664 0H7.83727C8.15247 0 8.40793 0.255392 8.40793 0.570666C8.40793 0.885871 8.15247 1.14133 7.83727 1.14133Z" transform="translate(54.5679 18.4415)" fill="#34495E"/>
    <path d="M1.93799 5.82996H3.07932V5.2593V0.570665V0H1.93799V0.570665V1.37252H0.570664H0V2.51385H0.570664H1.93799V3.31611H0.570664H0V4.45737H0.570664H1.93799V5.2593V5.82996Z" transform="translate(55.1387 7.09473)" fill="#FFA617"/>
    <path d="M2.22961 2.51385H2.80027V1.37252H2.22961H1.14133V0.570665V0H0V0.570665V3.88671C0 4.20185 0.255391 4.45737 0.570664 4.45737H2.22961H2.80027V3.31605H2.22961H1.14133V2.51385H2.22961Z" transform="translate(59.5366 7.09473)" fill="#FFA617"/>
    <path opacity="0.15" d="M1.05109 5.33025V0.499502C1.05109 0.223536 1.2747 0 1.55066 0H0.49957C0.223603 0 0 0.223536 0 0.499502V5.33025C0 5.60622 0.223672 5.82982 0.49957 5.82982H1.55073C1.2747 5.82989 1.05109 5.60622 1.05109 5.33025Z" transform="translate(55.1387 7.09473)" fill="#202121"/>
    <path d="M35 22.0685C35 23.2112 34.0737 24.1376 32.9311 24.1376H2.0689C0.926269 24.1376 0 23.2111 0 22.0685V2.06897C0 0.92627 0.926269 0 2.0689 0H32.931C34.0737 0 34.9999 0.926338 34.9999 2.06897L35 22.0685Z" transform="translate(102)" fill="#E7E8E3"/>
    <path opacity="0.15" d="M1.47089 22.0685V2.06897C1.47089 0.92627 2.39729 0 3.53992 0H2.06883C0.926269 0 0 0.926407 0 2.06897V22.0684C0 23.2111 0.926269 24.1374 2.0689 24.1374H3.53999C2.39736 24.1376 1.47089 23.2111 1.47089 22.0685Z" transform="translate(102)" fill="#202121"/>
    <path d="M6.64686 0H2.9791C1.19718 0 0 1.19725 0 2.9791V8.30799C0 8.31059 0.000273546 8.31325 0.000752062 8.31585C0.141367 8.984 0.841709 9.48773 1.62976 9.48773C2.49977 9.48773 3.15567 8.87646 3.15567 8.06572V5.40456H5.39786V8.031C5.39786 9.52875 3.46978 10.2357 2.16713 10.2419C1.39658 10.2387 0.641485 10.002 0.0953616 9.59232C0.0839456 9.58378 0.068428 9.58235 0.0555764 9.58877C0.0555764 9.58877 0.0554398 9.58884 0.0553031 9.58891C0.0445707 9.58351 0.0317871 9.58337 0.0209863 9.58877C0.00820307 9.59527 6.83218e-05 9.60839 6.83218e-05 9.62281V15.5051C6.83218e-05 15.5261 0.0170219 15.5431 0.038145 15.5431H3.80981C5.13953 15.5431 6.68507 14.2872 6.68507 12.6679V0.0380766C6.68493 0.0169536 6.66805 0 6.64686 0Z" transform="translate(108.765 4.36951)" fill="#0F549D"/>
    <path d="M6.61247 0H2.97931C1.16956 0 0.000204444 1.15582 0.000204444 2.94472V5.95499C0.000204444 5.96976 0.00868102 5.98315 0.0220111 5.98944C0.0354095 5.99566 0.0511324 5.99361 0.0625484 5.98418C0.379667 5.71977 0.890928 5.40463 1.52599 5.40463H5.43259V6.11529C4.48403 5.90762 3.60664 5.81301 3.18678 5.81301C2.19263 5.81301 1.38387 6.62177 1.38387 7.61578L1.38414 7.62679L1.38387 7.65037C1.38387 8.64445 2.19263 9.45315 3.18678 9.45315C3.69605 9.45315 4.58268 9.37029 5.43259 9.18545V9.82686H1.52599C0.964072 9.82686 0.43162 9.61639 0.065009 9.24957C0.0540031 9.23863 0.0376656 9.23542 0.0235152 9.24137C0.00922811 9.24725 0 9.26112 0 9.2765V15.5049C0 15.5258 0.0169526 15.5429 0.0380756 15.5429H3.7748C5.10474 15.5429 6.65034 14.287 6.65034 12.6677V0.0380766C6.65048 0.0169536 6.63352 0 6.61247 0Z" transform="translate(116.17 4.36951)" fill="#B41F36"/>
    <path d="M0 1.62976C0 1.65074 0.0170903 1.66783 0.0380766 1.66783H1.66428C2.10089 1.66783 2.4984 1.27025 2.4984 0.833848C2.4984 0.39751 2.10082 0 1.66428 0H0.0380766C0.0171587 0 0 0.017022 0 0.0380766V1.62976Z" transform="translate(124.786 12.1205)" fill="#329947"/>
    <path d="M6.61254 0H3.01369C2.05577 0 1.27736 0.323955 0.75667 0.894141V0.894073C0.75667 0.894073 0 1.63222 0 2.84956C0 2.89454 0 2.93727 0 2.97903V4.06691V5.36655C0 5.38754 0.0169536 5.40463 0.0380766 5.40463H4.39811C4.99639 5.40463 5.50197 5.91021 5.50197 6.50856C5.50197 7.10691 4.99639 7.61243 4.39811 7.61243C4.37705 7.61243 4.36003 7.62945 4.36003 7.65051C4.36003 7.67156 4.37698 7.68858 4.39811 7.68858C5.07514 7.68858 5.60567 8.15828 5.60567 8.75786C5.60567 9.36749 5.08648 9.82721 4.39811 9.82721H0.0380766C0.017022 9.82721 0 9.84423 0 9.86528V15.5052C0 15.5262 0.0169536 15.5433 0.0380766 15.5433H3.77522C5.10501 15.5433 6.65062 14.2873 6.65062 12.668V0.0380766C6.65062 0.0169536 6.63346 0 6.61254 0Z" transform="translate(123.644 4.36951)" fill="#329947"/>
    <path d="M0.0380766 1.63331H1.66428C2.09761 1.63331 2.46367 1.26725 2.46367 0.833915C2.46367 0.397509 2.0663 0 1.62996 0H0.0380766C0.0171587 0 0 0.0170209 0 0.0380756V1.5953C0 1.61629 0.0170903 1.63331 0.0380766 1.63331Z" transform="translate(124.786 10.1826)" fill="#329947"/>
    <path d="M35 22.0685C35 23.2112 34.0737 24.1375 32.9311 24.1375H2.0689C0.926269 24.1376 0 23.2112 0 22.0685V2.06897C0 0.92627 0.926269 0 2.0689 0H32.9311C34.0738 0 35 0.926338 35 2.06897V22.0685Z" transform="translate(0 2)" fill="white"/>
    <path d="M5.68326 4.66915L4.86144 0.726797C4.72097 0.183135 4.31218 0.0213965 3.8014 0H0.0335644L0 0.180128C2.9346 0.891544 4.87635 2.60777 5.68326 4.66915Z" transform="translate(2.08496 9.5387)" fill="#F79F1A"/>
    <path d="M3.95493 0H1.52045L0 8.92274H2.43045L3.95493 0Z" transform="translate(12.5439 9.61792)" fill="#059BBF"/>
    <path d="M4.75159 8.9077L8.5804 0H6.00387L3.62202 6.0859L3.36779 5.16701C2.9009 4.06157 1.56652 2.47051 0 1.46891L2.17725 8.91071L4.75159 8.9077Z" transform="translate(4.50049 9.62415)" fill="#059BBF"/>
    <path d="M6.9436 6.15857C6.95263 5.14555 6.30219 4.37288 4.90055 3.73468C4.04872 3.32247 3.52953 3.0476 3.53575 2.62931C3.53575 2.25976 3.97544 1.86279 4.92809 1.86279C5.72523 1.85056 6.29918 2.0246 6.7481 2.2048L6.96808 2.30562L7.29798 0.372627C6.81543 0.192364 6.06108 0 5.11766 0C2.71435 0 1.02266 1.20935 1.00734 2.94383C0.992032 4.22646 2.21676 4.94102 3.13886 5.36847C4.08543 5.80419 4.40303 6.08303 4.39694 6.47391C4.39086 7.07157 3.6426 7.34412 2.94335 7.34412C1.96923 7.34412 1.45312 7.2098 0.652696 6.87634L0.34166 6.73347L0 8.73291C0.567588 8.98099 1.61793 9.19782 2.70826 9.20685C5.26401 9.20685 6.92528 8.01288 6.9436 6.15857Z" transform="translate(16.499 9.46533)" fill="#059BBF"/>
    <path d="M3.06578 7.57613C3.34366 7.57613 5.82627 7.57921 6.18064 7.57921C6.25393 7.8899 6.47684 8.91666 6.47684 8.91666H8.73346L6.76382 0H4.88585C4.30254 0 3.86907 0.158799 3.61245 0.738897L0 8.91666H2.55609C2.55589 8.91666 2.9711 7.81751 3.06578 7.57613ZM4.733 3.25514C4.72097 3.27954 4.93466 2.73909 5.05682 2.40317L5.22163 3.17263C5.22163 3.17263 5.68593 5.30421 5.78354 5.75005H3.76503C3.96662 5.23708 4.733 3.25514 4.733 3.25514Z" transform="translate(23.2686 9.6272)" fill="#059BBF"/>
    <path d="M32.9311 0H2.0689C0.926269 0 0 0.92627 0 2.06897V4.21627H35V2.06897C35 0.92627 34.0738 0 32.9311 0Z" transform="translate(0 2)" fill="#059BBF"/>
    <path d="M32.9311 4.21627H2.0689C0.926269 4.21627 0 3.28993 0 2.1473V0H35V2.1473C35 3.28993 34.0738 4.21627 32.9311 4.21627Z" transform="translate(0 21.9213)" fill="#F79F1A"/>
    <path opacity="0.15" d="M1.47089 22.0685V2.06897C1.47089 0.92627 2.39723 0 3.53992 0H2.06883C0.926269 0 0 0.92627 0 2.06897V22.0685C0 23.2112 0.926269 24.1376 2.0689 24.1376H3.53999C2.39729 24.1376 1.47089 23.2112 1.47089 22.0685Z" transform="translate(0 2)" fill="#202121"/>
</svg>
