<svg width="24" height="20" viewBox="0 0 24 20" fill="none" xmlns="http://www.w3.org/2000/svg">
<path d="M12 7.2C10.0116 7.2 8.4 8.81232 8.4 10.8C8.4 12.7884 10.0116 14.4 12 14.4C13.9879 14.4 15.6 12.7884 15.6 10.8C15.6 8.81232 13.9879 7.2 12 7.2ZM21.6 3.6H18.72C18.324 3.6 17.8973 3.2928 17.7722 2.91696L17.0278 0.6828C16.9022 0.3072 16.476 0 16.08 0H7.92C7.524 0 7.09728 0.3072 6.97224 0.68304L6.22776 2.9172C6.10224 3.2928 5.676 3.6 5.28 3.6H2.4C1.08 3.6 0 4.68 0 6V16.8C0 18.12 1.08 19.2 2.4 19.2H21.6C22.92 19.2 24 18.12 24 16.8V6C24 4.68 22.92 3.6 21.6 3.6ZM12 16.8C8.68632 16.8 6 14.1137 6 10.8C6 7.48656 8.68632 4.8 12 4.8C15.3132 4.8 18 7.48656 18 10.8C18 14.1137 15.3132 16.8 12 16.8ZM20.76 7.67832C20.2963 7.67832 19.92 7.30248 19.92 6.83832C19.92 6.37464 20.2963 5.99832 20.76 5.99832C21.2242 5.99832 21.6 6.37464 21.6 6.83832C21.6 7.30248 21.2239 7.67832 20.76 7.67832Z" fill="#A6A4A4"/>
</svg>
